<svg width="148" height="34" viewBox="0 0 148 34" fill="none" xmlns="http://www.w3.org/2000/svg">
<path fill-rule="evenodd" clip-rule="evenodd" d="M88.3168 8.66374C87.6109 8.97656 87.1634 9.68429 87.1834 10.4561V10.4811C87.1788 10.9881 87.3859 11.4741 87.755 11.8218C88.124 12.1695 88.6214 12.3475 89.1272 12.3127C89.8992 12.2973 90.5857 11.8178 90.8658 11.0983C91.1459 10.3788 90.9643 9.56136 90.406 9.02806C89.8476 8.49476 89.0227 8.35091 88.3168 8.66374ZM46.6004 9.52208H42.8623V24.6364H46.6004V9.52208ZM53.9145 12.9608C50.3758 12.9608 48.0831 15.1912 48.0831 18.9293C48.0831 22.7297 50.3259 24.9103 53.9145 24.9103C57.5031 24.9103 59.7459 22.6674 59.7459 18.9293C59.7459 15.1912 57.4532 12.9608 53.9145 12.9608ZM55.9956 18.9292C55.9956 16.8732 55.1857 15.6646 53.9148 15.6646C52.6438 15.6646 51.8463 16.9106 51.8463 18.9292C51.8463 20.9478 52.6313 22.1689 53.9148 22.1689C55.1982 22.1689 55.9956 21.0225 55.9956 18.9417V18.9292ZM64.7425 25.3712h41.1539V25.3837C61.3657 27.4521 63.4217 28.9349 66.7237 28.9349C70.2749 28.9349 72.6797 27.2403 72.6797 24.5115V13.1726h48.9416V15.2534C68.3654 13.8763 66.9943 13.0019 65.5026 13.0604C62.6367 13.0604 60.9172 15.3157 60.9172 18.8918C60.9172 22.468 62.7239 24.5488 65.4527 24.5488C66.8978 24.6273 68.245 23.818 68.8544 22.5053h48.9292V24.5987C68.9292 25.7201 68.1815 26.4926 66.7611 26.4926C65.9142 26.6065 65.0932 26.1504 64.7425 25.3712ZM68.9418 18.9167C68.9418 17.0975 68.107 15.9511 66.7862 15.9511C65.4654 15.9511 64.6555 17.085 64.6555 18.9167C64.6555 20.7484 65.4529 21.7826 66.7862 21.7826C68.1194 21.7826 68.9418 20.7733 68.9418 18.9291V18.9167ZM79.9194 12.9485C76.3807 12.9485 74.088 15.1789 74.088 18.917V18.9295C74.088 22.7298 76.3184 24.8979 79.9194 24.8979C83.5204 24.8979 85.7633 22.6551 85.7633 18.917C85.7633 15.1789 83.4581 12.9485 79.9194 12.9485ZM82 18.9169C82 16.8609 81.1901 15.6523 79.9191 15.6523C78.6482 15.6523 77.913 16.9108 77.913 18.9418C77.913 20.9728 78.698 22.1815 79.969 22.1815C81.2399 22.1815 82 21.0227 82 18.9418V18.9169ZM87.1834 13.1974H90.9215V24.636H87.1834V13.1974ZM99.9927 24.7858C102.834 24.7858 104.491 22.6551 104.491 18.917L104.541 18.9419C104.541 15.2038 102.834 13.0606 99.9677 13.0108C98.464 12.9436 97.0792 13.8253 96.5038 15.2162H96.429V13.1728H92.6909V28.2996H96.429V22.6675H96.5038C97.1072 24.0356 98.5005 24.8816 99.9927 24.7858ZM100.753 18.9166C100.753 17.0974 99.918 15.9386 98.6096 15.9386C97.3013 15.9386 96.4664 17.1099 96.454 18.9166C96.4415 20.7234 97.3013 21.8822 98.6096 21.8822C99.918 21.8822 100.753 20.7483 100.753 18.9416V18.9166ZM115.98 16.7612C115.892 14.4062 114.011 12.9358 110.908 12.9358V12.9608C107.818 12.9608 105.812 14.4186 105.787 16.6615C105.787 18.4059 106.958 19.5897 109.189 20.0507L111.344 20.5117C112.241 20.6986 112.59 20.8232 112.59 21.4213C112.59 22.0194 112.092 22.3808 110.995 22.3808C109.899 22.3808 109.226 21.8824 109.114 21.035H105.513C105.675 23.3651 107.756 24.8853 110.933 24.8853C114.11 24.8853 116.266 23.3651 116.266 20.9977C116.266 19.2657 115.294 18.3436 113.014 17.8577L110.622 17.3717C109.787 17.1973 109.376 17.0104 109.376 16.4247C109.376 15.8391 109.837 15.4404 110.871 15.4404C111.905 15.4404 112.578 15.9512 112.578 16.7612H115.98ZM128.739 24.6113H125.138V22.4806H125.063C124.655 23.9545 123.275 24.9452 121.748 24.8605C120.599 24.9258 119.478 24.4899 118.675 23.6653C117.872 22.8408 117.466 21.7087 117.562 20.5617V13.1727H121.3V19.7019C121.3 21.0601 121.998 21.7828 123.156 21.7828C123.706 21.7839 124.23 21.5477 124.593 21.1347C124.955 20.7217 125.122 20.1722 125.05 19.6272V13.1727H128.789L128.739 24.6113ZM134.159 13.1726H130.545L130.483 24.6361H134.221V17.895C134.164 17.421 134.313 16.9452 134.63 16.588C134.946 16.2307 135.401 16.0261 135.878 16.026C136.9 16.026 137.461 16.649 137.461 17.7954V24.6361H141.012V17.8701C140.951 17.4019 141.095 16.93 141.408 16.5764C141.721 16.2227 142.172 16.022 142.644 16.026C143.691 16.026 144.252 16.5992 144.252 17.8452V24.6361H147.99V16.8484C148.065 15.8224 147.7 14.813 146.987 14.0715C146.274 13.33 145.28 12.9262 144.252 12.9608C142.649 12.8919 141.203 13.9174 140.738 15.4528H140.663C140.415 13.9213 139.032 12.8369 137.486 12.9608C135.978 12.9329 134.642 13.9263 134.234 15.3781H134.159V13.1726Z" fill="#696871"/>
<path fill-rule="evenodd" clip-rule="evenodd" d="M29.9164 6.19486C30.9351 7.40592 31.7744 8.75715 32.4085 10.2071C33.3322 12.3211 33.8074 14.6037 33.8041 16.9107C33.7972 26.2228 26.2573 33.7739 16.9453 33.7945C14.7785 33.7933 12.6328 33.37 10.6279 32.5484C9.19788 31.9802 7.85547 31.2125 6.64058 30.2682C1.47327 26.3302 -0.971393 19.7734 0.356493 13.4137C1.68438 7.05397 6.54849 2.0232 12.8599 0.481909C19.1712 -1.05938 25.8067 1.16309 29.9164 6.19486ZM22.565 4.68719C20.8009 3.86623 18.8787 3.44095 16.933 3.44116L16.9454 3.41624C12.3314 3.4128 8.03732 5.77345 5.56786 9.671C3.0984 13.5685 2.79791 18.4595 4.77169 22.63C5.33451 22.0388 5.68134 21.2749 5.75605 20.462C6.20925 17.3312 8.66854 14.8719 11.7993 14.4187C13.5657 14.2585 14.9764 12.8791 15.176 11.1167C15.6292 7.98595 18.0885 5.52666 21.2193 5.07346C21.6826 5.00288 22.1348 4.87306 22.565 4.68719ZM6.6283 25.6329C6.67814 25.5872 6.72798 25.5429 6.77783 25.4986C6.87751 25.41 6.97719 25.3214 7.07687 25.2217C8.1854 24.1469 8.89696 22.7282 9.09544 21.197C9.17591 20.3363 9.56021 19.5324 10.1795 18.9292C10.7754 18.3089 11.5775 17.9278 12.4348 17.8576C15.5656 17.4044 18.0249 14.9451 18.4781 11.8144C18.532 10.9141 18.9183 10.066 19.5621 9.43446C20.1727 8.82621 20.9825 8.45895 21.8423 8.40026C23.2428 8.20758 24.5489 7.585 25.5804 6.61843C26.755 7.59292 27.7502 8.76521 28.5211 10.0824C28.4737 10.1464 28.4194 10.2049 28.3591 10.2568C27.7643 10.8826 26.9633 11.2721 26.1038 11.3534C22.9691 11.7987 20.5059 14.2619 20.0605 17.3966C19.8795 19.1651 18.4779 20.5615 16.7087 20.736C13.5692 21.1856 11.0971 23.6426 10.6281 26.7792C10.561 27.3882 10.3519 27.9729 10.0175 28.4863C8.73907 27.7272 7.59408 26.7633 6.6283 25.6329ZM13.1948 29.9192C14.4102 30.2677 15.6685 30.4439 16.9329 30.4425V30.3802C21.1059 30.364 25.0363 28.4163 27.5766 25.1055C30.117 21.7947 30.981 17.4942 29.9165 13.4591C28.9706 14.128 27.8756 14.5557 26.7267 14.7052C24.9623 14.8852 23.5673 16.2802 23.3873 18.0445C22.9327 21.1792 20.4672 23.6396 17.3316 24.0878C15.5673 24.2678 14.1723 25.6628 13.9922 27.4271C13.8808 28.2995 13.6105 29.1442 13.1948 29.9192Z" fill="#696871"/>
</svg>
